<svg width="13" height="14" viewBox="0 0 13 14" fill="none" xmlns="http://www.w3.org/2000/svg">
<path d="M1.15742 12.3571C0.881501 12.666 0.908263 13.1401 1.2172 13.4161C1.52613 13.692 2.00025 13.6652 2.27617 13.3563L1.15742 12.3571ZM12.4362 1.65085C12.4129 1.23729 12.0587 0.920963 11.6452 0.944306L4.9059 1.32471C4.49234 1.34805 4.17602 1.70223 4.19936 2.11578C4.2227 2.52934 4.57688 2.84567 4.99043 2.82232L10.9809 2.48419L11.319 8.47465C11.3424 8.88821 11.6966 9.20454 12.1101 9.18119C12.5237 9.15785 12.84 8.80368 12.8166 8.39012L12.4362 1.65085ZM2.27617 13.3563L12.2468 2.19271L11.1281 1.19351L1.15742 12.3571L2.27617 13.3563Z" fill="#07FFFF"/>
</svg>
